<?xml version="1.0" encoding="utf-8" ?><svg xmlns="http://www.w3.org/2000/svg" xmlns:xlink="http://www.w3.org/1999/xlink" width="512" height="512" viewBox="0 0 512 512"><path transform="scale(0.5 0.5)" d="M0 0L1024 0L1024 1024L0 1024L0 0Z"/><path fill="#FEFEF0" transform="scale(0.5 0.5)" d="M318.859 314.602C298.085 336.231 275.236 356.876 245.141 363.492C222.4 368.349 198.66 364.08 179.036 351.604C157.472 338.031 142.31 316.319 136.993 291.401C131.881 267.65 137.634 241.849 150.837 221.617C163.742 201.918 183.953 188.162 207.012 183.382C229.615 178.544 253.214 182.886 272.614 195.452C301.304 214.381 321.945 257.231 301.075 288.489C308.106 283.728 313.43 277.473 319.4 271.594C337.976 253.304 353.588 232.563 370.354 212.682C374.51 207.76 380.822 198.303 385.48 194.78C390.246 191.235 396.235 189.749 402.106 190.656C413.235 192.367 428.339 207.165 434.674 216.087C437.474 220.029 439.445 224.636 438.518 229.561C437 237.629 414.971 268.057 409.222 277.068C376.319 328.635 342.743 391.946 352.903 455.263C355.32 470.325 360.627 486.222 368.87 499.127C380.413 517.196 398.067 530.2 419.087 534.742C433.532 537.864 449.213 536.53 463.944 536.449L516.612 536.397L753.283 536.394C771.781 536.509 790.281 536.094 808.849 536.128C822.416 536.153 830.079 537.451 838.469 549.471C843.715 556.988 843.933 567.746 842.333 576.529C839.396 589.627 828.13 600.009 814.458 600.508C808.812 600.714 803.062 600.558 797.369 600.559L762.88 600.562L657.423 600.496L511.464 600.49L468.57 600.517C449.107 600.569 430.37 601.486 411.288 596.349C376.478 586.978 344.454 564.066 325.826 533.101C302.55 494.407 301.196 450.044 311.527 407.23C313.834 397.668 317.621 388.002 321.106 378.816C315.527 387.085 310.28 397.665 305.556 406.594C298.098 420.822 290.437 434.943 282.574 448.952C264.253 481.569 241.958 517.708 202.26 525.092C180.522 529.135 160.41 525.78 142.084 513.166C125.157 501.607 113.537 483.776 109.797 463.623C102.424 421.581 128.182 381.771 170.919 374.696C188.916 371.566 207.414 375.843 222.21 386.556C237.578 397.658 250.741 417.612 249.339 437.188C254.577 428.167 258.957 418.521 264.129 409.513C280.989 380.145 296.878 349.953 315.717 321.803C316.946 319.966 318.404 318.059 319.474 316.144L318.859 314.602Z"/><path transform="scale(0.5 0.5)" d="M232.436 270.634C241.445 243.54 273.141 247.907 288.791 265.458C292.08 268.541 294.043 271.621 296.054 275.6C298.02 279.488 298.929 284.992 301.075 288.489C299.368 290.872 294.881 293.992 292.409 295.6C281.514 302.749 268.645 308.925 255.329 305.805C242.576 302.818 231.712 292.403 231.4 278.756C231.332 275.785 231.776 273.478 232.436 270.634Z"/><path fill="#0A0C08" transform="scale(0.5 0.5)" d="M318.859 314.602C321.088 312.029 322.544 310.698 325.052 308.421C323.258 310.923 321.335 313.727 319.474 316.144L318.859 314.602Z"/><path transform="scale(0.5 0.5)" d="M210.852 425.188C225.485 424.284 236.737 432.689 245.169 443.817C240.187 454.386 231.873 464.773 220.981 469.629C205.872 474.558 189.487 466.528 187.73 449.99C187.166 444.172 188.96 438.37 192.711 433.886C197.711 427.847 203.452 425.998 210.852 425.188Z"/><path fill="#FEFEF0" transform="scale(0.5 0.5)" d="M246.436 529.209C278.085 526.213 310.034 539.715 326.018 568.268C341.628 596.153 335.449 635.122 305.494 650.752C293.53 656.844 279.667 658.051 266.83 654.116C253.627 649.926 244.11 641.797 237.841 629.553C250.05 637.924 264.217 638.585 273.785 625.908C277.96 620.318 279.636 613.25 278.418 606.381C277.215 599.663 273.297 593.737 267.588 589.998C249.522 577.99 226.77 589.723 216.398 606.192C206.676 621.63 202.062 636.945 201.652 655.18C201.202 675.224 201.562 695.09 201.461 715.12C201.849 723.683 200.627 732.796 202.485 741.187C208.359 767.715 238.157 774.047 255.608 753.693C259.292 749.395 261.318 745.834 264.049 741.15L212.797 741.075C212.141 716.987 212.764 690.901 212.78 666.654L246.954 666.603L329.079 666.907C329.466 678.035 329.233 690.206 329.24 701.404L329.314 762.188L329.442 795.161C329.474 802.269 330.016 811.511 328.636 818.331C325.848 832.111 313.322 842.878 299.608 843.947C290.746 844.715 281.953 841.84 275.258 835.984C268.433 830.031 265.161 822.219 264.621 813.318C252.283 825.942 238.54 836.825 219.896 837.423C154.02 839.537 132.57 769.649 128.301 716.026C121.849 634.994 150.713 536.125 246.436 529.209Z"/><path fill="#FEFEF0" transform="scale(0.5 0.5)" d="M848.228 615.76L872.056 615.549C885.035 615.449 898.105 613.833 908.127 623.305C914.352 629.188 916.588 635.117 916.714 643.51C916.916 656.887 916.876 670.314 916.879 683.671L916.85 757.15L916.824 796.01C916.816 801.412 917.007 814.322 916.195 819.231C915.255 824.589 912.769 829.556 909.043 833.521C903.014 839.906 894.619 843.018 885.942 843.234C876.825 843.538 867.975 840.119 861.431 833.763C854.37 826.904 852.577 819.884 852.506 810.407C848.1 816.549 845.028 822.081 838.902 826.887C809.077 850.283 766.457 838.92 743.656 811.986C742.143 810.117 740.712 808.183 739.367 806.19C724.944 785.119 721.594 759.685 725.96 734.858C730.4 712.255 744.532 692.108 763.603 679.571C793.392 659.989 831.94 660.453 852.993 692.046C852.53 676.633 852.925 659.382 852.941 643.83L799.186 643.668C789.723 643.691 779.362 644.073 769.999 643.606L769.724 615.975C795.892 616.089 822.061 616.017 848.228 615.76Z"/><path transform="scale(0.5 0.5)" d="M808.321 729.986C820.832 727.956 832.624 736.441 834.673 748.949C836.722 761.457 828.255 773.261 815.75 775.329C803.218 777.402 791.383 768.912 789.33 756.377C787.276 743.843 795.784 732.021 808.321 729.986Z"/><path fill="#FEFEF0" transform="scale(0.5 0.5)" d="M447.797 613.165C456.344 612.195 465.724 615.315 471.952 621.318C479.776 628.859 482.331 636.306 482.371 647.108C482.51 684.521 482.345 721.938 482.406 759.352L482.451 792.933C482.462 808.883 483.524 818.431 471.561 830.783C458.473 844.297 439.163 840.672 421.806 840.716L376.487 841.108C364.917 841.135 356.284 838.785 347.854 830.646C335.66 818.874 336.615 805.267 336.846 789.689C336.911 785.323 336.869 780.832 336.88 776.465L336.947 712.75L336.935 663.081C336.917 655.566 335.867 642.322 337.376 635.848C342.338 614.562 370.92 606.282 386.891 621.005C397.165 630.475 396.954 637.696 396.913 650.524C396.892 657.046 396.89 663.201 396.871 669.476L396.808 735.225C396.84 744.704 396.882 754.893 396.908 764.519C396.947 778.949 413.807 780.706 417.918 770.073C420.232 764.087 419.364 748.433 419.34 741.195L419.29 671.808C419.277 664.09 418.611 644.31 419.698 637.629C420.409 633.009 422.338 628.662 425.286 625.035C430.829 618.132 439.118 614.222 447.797 613.165Z"/><path transform="scale(0.5 0.5)" d="M406.065 798.086C417.354 797.847 419.204 804.709 419.007 814.335L409.375 814.158C405.344 814.092 400.929 814.224 396.866 814.261C397.037 805.846 397.537 801.43 406.065 798.086Z"/><path fill="#FEFEF0" transform="scale(0.5 0.5)" d="M669.251 271.935C693.938 273.29 719.265 275.809 743.998 277.573C790.53 280.601 837.033 284.07 883.501 287.977C895.007 288.965 902.433 290.955 910.239 300.059C918.461 309.649 917.132 321.632 917.108 333.385L917.066 359.956L917.115 443.611L917.043 534.188L917.114 564.191C917.148 580.073 919.261 591.345 905.607 602.6C886.449 616.887 858.447 607.823 853.849 584.183C852.467 577.08 853.167 564.765 853.132 557.084L853.068 507.504C853.154 451.17 853.513 394.073 852.864 337.782C846.528 336.876 836.245 334.235 829.634 332.846L786.661 324.194C745.776 316.284 704.785 308.928 663.7 302.128C667.059 292.327 668.44 282.204 669.251 271.935Z"/><path fill="#FEFEF0" transform="scale(0.5 0.5)" d="M518.207 613.131C528.376 612.33 537.101 615.195 544.246 622.697C555.759 634.784 553.248 655.564 552.561 671.088C554.428 669.314 556.141 667.383 557.679 665.316C568.494 650.559 567.288 631.614 564.755 614.482C572.721 614.514 591.74 613.337 598.365 615.577C654.626 634.596 657.907 734.578 618.325 770.708C600.92 786.595 588.482 786.793 566.16 786.492C565.856 784.779 565.877 775.664 565.925 773.759C566.366 756.287 564.071 747.387 552.61 734.069L552.777 787.106C552.827 794.619 552.79 802.12 552.748 809.627C552.703 817.861 552.492 823.528 547.655 830.551C542.977 837.359 535.785 842.028 527.663 843.53C511.848 846.327 494.176 835.838 491.842 819.546C490.518 810.298 491.067 798.931 491.048 789.417L490.952 737.405L490.911 673.903C490.926 662.762 490.695 651.497 491.36 640.387C492.247 625.586 504.121 615.287 518.207 613.131Z"/><path transform="scale(0.5 0.5)" d="M568.681 682.088C579.663 681.523 589.057 689.896 589.753 700.871C590.449 711.846 582.187 721.339 571.221 722.165C564.011 722.708 557.066 719.333 553.038 713.328C549.01 707.323 548.521 699.616 551.759 693.151C554.996 686.686 561.46 682.46 568.681 682.088Z"/><path fill="#FEFEF0" transform="scale(0.5 0.5)" d="M563.196 183.322C611.464 178.186 654.727 213.227 659.728 261.51C664.728 309.793 629.564 352.957 581.267 357.821C533.162 362.666 490.208 327.672 485.228 279.582C480.247 231.491 515.119 188.438 563.196 183.322Z"/><path transform="scale(0.5 0.5)" d="M567.9 297.76C582.049 296.23 594.748 306.49 596.225 320.645C597.702 334.801 587.393 347.461 573.232 348.883C559.147 350.298 546.57 340.057 545.101 325.978C543.633 311.899 553.826 299.282 567.9 297.76Z"/><path fill="#FEFEF0" transform="scale(0.5 0.5)" d="M568.681 315.6C580.377 314.198 582.434 326.326 572.339 331.372C563.233 331.669 557.697 321.437 568.681 315.6Z"/><path transform="scale(0.5 0.5)" d="M566.97 193.695C580.879 190.835 594.471 199.799 597.318 213.71C600.166 227.622 591.19 241.205 577.276 244.041C563.38 246.873 549.816 237.911 546.972 224.017C544.128 210.122 553.079 196.551 566.97 193.695Z"/><path fill="#FEFEF0" transform="scale(0.5 0.5)" d="M570.318 211.264C574.671 210.317 578.969 213.076 579.919 217.428C580.869 221.781 578.113 226.08 573.761 227.033C569.405 227.986 565.101 225.227 564.15 220.871C563.199 216.514 565.961 212.212 570.318 211.264Z"/><path transform="scale(0.5 0.5)" d="M520.371 217.849C529.526 216.835 538.517 220.831 543.9 228.306C549.283 235.781 550.223 245.575 546.359 253.937C542.496 262.299 534.428 267.931 525.247 268.677C511.337 269.807 499.096 259.558 497.763 245.666C496.43 231.773 506.499 219.384 520.371 217.849Z"/><path fill="#FEFEF0" transform="scale(0.5 0.5)" d="M522.12 235.72C526.491 235.065 530.578 238.039 531.3 242.399C532.022 246.759 529.112 250.892 524.764 251.682C521.891 252.204 518.959 251.136 517.093 248.889C515.228 246.642 514.718 243.564 515.759 240.836C516.801 238.108 519.232 236.152 522.12 235.72Z"/><path transform="scale(0.5 0.5)" d="M616.384 218.251C630.261 215.705 643.557 224.944 646.011 238.837C648.466 252.73 639.139 265.965 625.229 268.327C611.45 270.667 598.366 261.446 595.934 247.683C593.503 233.919 602.637 220.774 616.384 218.251Z"/><path fill="#FEFEF0" transform="scale(0.5 0.5)" d="M618.65 236.05C622.887 234.852 627.302 237.274 628.568 241.491C629.835 245.708 627.486 250.161 623.29 251.496C620.514 252.379 617.478 251.698 615.347 249.712C613.216 247.727 612.321 244.747 613.005 241.916C613.69 239.085 615.847 236.842 618.65 236.05Z"/><path transform="scale(0.5 0.5)" d="M617.395 270.968C626.483 269.917 635.429 273.855 640.791 281.268C646.152 288.68 647.092 298.41 643.249 306.711C639.405 315.013 631.378 320.591 622.257 321.299C608.519 322.365 596.457 312.235 595.132 298.519C593.807 284.803 603.707 272.551 617.395 270.968Z"/><path fill="#FEFEF0" transform="scale(0.5 0.5)" d="M619.056 287.801C621.916 287.385 624.778 288.537 626.552 290.818C628.325 293.1 628.736 296.158 627.627 298.827C626.518 301.495 624.061 303.362 621.193 303.715C616.826 304.253 612.84 301.176 612.255 296.815C611.669 292.454 614.702 288.434 619.056 287.801Z"/><path transform="scale(0.5 0.5)" d="M518.854 270.354C532.556 268.048 545.514 277.346 547.715 291.066C549.917 304.785 540.52 317.672 526.784 319.768C513.195 321.843 500.478 312.568 498.3 298.996C496.122 285.424 505.299 272.635 518.854 270.354Z"/><path fill="#FEFEF0" transform="scale(0.5 0.5)" d="M520.989 287.052C525.329 285.889 529.793 288.447 530.983 292.78C532.174 297.112 529.643 301.592 525.318 302.809C520.955 304.037 516.427 301.479 515.226 297.109C514.025 292.738 516.611 288.226 520.989 287.052Z"/><path fill="#FEFEF0" transform="scale(0.5 0.5)" d="M444.397 285.185C448.151 284.829 450.108 285.049 453.653 285.646C460.742 286.84 468.934 292.16 472.507 298.334C490.202 328.906 453.564 388.683 438.969 415.744C436.299 420.694 425.681 436.409 425.032 439.436C426.764 438.602 439.349 420.186 441.83 417.197C444.263 414.266 447.556 408.901 450.351 405.704C458.665 396.198 465.747 380.476 479.586 378.691C484.992 377.993 491.272 379.968 495.474 383.412C510.354 396.792 498.59 408.559 490.199 419.166C485.069 425.737 479.883 432.265 474.641 438.747C478.669 440.451 481.009 442.229 484.3 444.962C477.539 447.946 476.339 447.143 470.356 443.51L465.037 450.101C473.166 460.012 483.2 475.51 490.394 486.288C493.823 491.243 497.643 496.309 500.29 501.709C504.441 510.179 501.618 519.874 494.039 525.28C489.725 528.416 484.316 529.647 479.07 528.686C467.703 526.598 462.612 514.985 456.157 506.426C447.799 495.344 439.788 483.805 432.002 472.313C432.106 482.289 432.313 492.266 432.343 502.24C432.36 507.945 431.882 513.136 428.45 517.94C419.98 529.793 405.648 528.362 395.807 519.049C391.92 515.37 389.685 511.501 389.14 506.087C388.586 499.969 388.757 493.648 388.767 487.544L388.816 456.324L388.642 405.435C388.573 369.615 389.139 333.797 412.511 303.952C421.102 292.981 430.442 286.843 444.397 285.185Z"/><path transform="scale(0.5 0.5)" d="M451.613 318.993C452.801 319.067 454.072 319.087 455.142 319.672C456.39 320.356 457.181 321.568 457.659 322.868C462.159 335.111 439.882 386.679 433.959 400.25L431.368 406.096C431.771 388.305 432.899 369.543 435.333 351.931C436.869 340.822 440.4 324.152 451.613 318.993Z"/><path fill="#FEFEF0" transform="scale(0.5 0.5)" d="M636.865 616.229C659.875 615.36 684.713 616.331 707.937 616.065C714.61 615.988 740.953 615.882 746.287 616.767C750.558 617.509 754.523 619.472 757.702 622.42C768.011 632.128 767.849 649.93 757.875 659.985C747.913 670.029 732.781 667.619 719.535 667.532L719.548 799.75C719.566 812.495 721.079 824.005 711.742 834.014C695.417 851.514 662.75 844.582 658.374 819.894C657.126 812.851 657.496 805.656 657.492 798.639L657.503 770.578L657.322 666.803C653.433 666.499 648.689 666.779 644.725 666.904C642.913 655.977 640.292 650.71 636.172 640.97C634.599 637.253 636.214 622.33 635.948 617.704C635.892 616.727 636.061 616.831 636.865 616.229Z"/><path fill="#FEFEF0" transform="scale(0.5 0.5)" d="M723.476 329.965C744.577 330.379 766.024 329.641 787.175 330.207L787.067 336.691C783.62 339.038 779.941 341.956 776.588 344.502C776.733 366.385 777.294 391.802 776.459 413.447C781.435 403.577 787.137 394.929 791.968 385.504C802.679 385.345 813.88 385.555 824.644 385.531C821.546 393.585 814.616 405.709 810.495 413.84L843.576 414L843.622 481.726C843.615 492.514 844.096 504.368 842.962 514.86C842.051 523.296 830.067 531.349 821.749 530.534C813.332 529.709 809.648 527.757 804.062 521.732C798.249 514.247 799.415 503.869 799.443 494.873L799.513 458.025C799.526 452.183 799.775 446.259 799.414 440.406C798.695 430.071 782.107 427.148 778.059 436.489C775.88 441.515 776.56 449.945 776.609 455.504L776.912 489.957C776.975 494.906 777.404 506.528 776.721 510.861C776.151 514.652 774.684 518.252 772.442 521.362C761.527 536.502 736.333 530.376 734.123 513.12C732.806 502.837 733.821 488.577 733.736 477.915L733.785 389.172C733.814 377.243 734.495 355.729 733.514 344.341L733.437 343.486C730.499 340.96 726.653 338.307 723.471 335.989L723.476 329.965Z"/><path fill="#FEFEF0" transform="scale(0.5 0.5)" d="M521.547 380.531L570.352 380.568C578.988 380.573 597.693 379.304 605.396 383.366C613.324 387.546 611.691 401.915 611.636 410.124C611.593 417.413 611.625 424.703 611.733 431.991C611.92 449.595 611.967 467.2 611.872 484.804C611.847 494.428 613.607 515.725 607.589 522.898C604.218 526.86 599.337 529.223 594.138 529.409C587.799 529.676 582.002 527.063 577.492 522.688C571.221 516.604 571.913 508.524 571.964 500.501C561.786 514.184 555.262 522.105 537.346 523.087C505 522.614 485.697 481.293 493.536 452.665C504.723 411.805 545.237 393.537 570.285 435.723C570.231 422.455 570.263 409.188 570.381 395.921C554.109 396.109 537.837 396.213 521.565 396.231L521.547 380.531Z"/><path transform="scale(0.5 0.5)" d="M545.372 452.158C553.311 451.166 560.563 456.766 561.611 464.698C562.659 472.63 557.111 479.922 549.186 481.026C541.182 482.142 533.8 476.525 532.742 468.513C531.683 460.5 537.352 453.159 545.372 452.158Z"/><path fill="#FEFEF0" transform="scale(0.5 0.5)" d="M636.905 380.671C644.88 380.049 659.017 380.435 667.456 380.438L723.915 380.496C724.008 388.345 723.977 396.196 723.821 404.045C717.469 411.664 709.187 420.17 699.836 423.716C693.603 421.162 683.022 413.635 679.012 408.522C679.954 406.354 681.13 404.147 682.203 402.029C677.765 402.222 658.286 400.488 656.65 403.337C658.663 408.837 696.237 425.297 703.725 430.202C713.328 435.96 722.989 443.384 726.648 454.741C737.009 486.899 724.041 513.33 693.64 524.822C686.4 527.161 681.053 528.35 673.443 529.001C649.012 531.089 616.926 520.037 615.084 491.414C614.42 480.643 618.077 470.053 625.246 461.987C638.675 447.114 653.262 458.954 664.178 469.556C661.382 471.658 656.752 475.359 657.33 479.415C658.05 484.459 665.016 484.749 668.849 484.328C680.957 482.998 684.118 472.311 674.124 465.064C669.97 462.13 664.859 459.904 660.405 457.487C650.255 451.981 639.864 446.981 630.158 440.704C621.666 435.3 615.752 428.071 613.885 418.066C612.206 409.074 612.64 400.652 618.127 393.067C623.436 385.726 627.92 382.453 636.905 380.671Z"/><path fill="#FEFEF0" transform="scale(0.5 0.5)" d="M864.97 229.73C879.418 229.891 882.873 236.758 882.01 250.474C881.515 258.35 883.765 269.878 877.26 275.681C874.948 277.718 872.05 278.971 868.982 279.26C864.267 279.68 855.685 278.921 850.753 278.639L817.266 276.698L691.876 268.424L669.192 266.872C668.379 254.455 667.367 249.794 663.817 238.032C682.267 237.935 703.265 236.265 722.038 235.501L864.97 229.73Z"/><path fill="#FEFEF0" transform="scale(0.5 0.5)" d="M813.874 184.202C822.171 183.165 828.875 184.604 830.39 194.031C830.898 197.197 830.189 200.902 830.49 203.876C833.098 229.64 818.862 226.481 799.012 227.159C790.132 227.443 781.256 227.831 772.385 228.323L712.98 230.921C696.101 231.737 678.92 232.92 662.058 233.491C657.693 223.614 650.997 212.094 644.279 203.792C700.728 196.56 757.263 190.03 813.874 184.202Z"/></svg>