<?xml version="1.0" encoding="utf-8" ?><svg xmlns="http://www.w3.org/2000/svg" xmlns:xlink="http://www.w3.org/1999/xlink" width="512" height="512" viewBox="0 0 512 512"><path fill="#FEFEF2" transform="scale(0.5 0.5)" d="M249.641 437.014C257.876 420.905 266.492 404.994 275.483 389.294C282.983 375.911 290.979 361.42 298.938 348.362C305.274 337.961 311.747 327.644 318.357 317.415C319.742 315.245 322.552 312.26 323.51 310.298L322.929 310.259C297.555 337.205 268.881 364.005 229.482 365.345C205.53 366.046 182.288 357.159 164.913 340.656C127.216 305.101 125.029 246.216 161.043 208.723C177.539 191.736 200.083 181.963 223.757 181.537C245.284 181.108 269.517 189.819 284.608 205.262C307.228 228.411 317.792 259.344 301.139 288.793C324.777 268.888 344.098 244.356 363.745 220.65C370.02 213.078 378.155 200.84 385.28 195.079C389.511 191.657 394.685 190.003 400.123 190.477C412.318 191.539 425.417 204.476 432.631 213.474C435.995 217.669 439.101 222.679 438.458 228.285C437.359 237.861 415.171 267.7 409.165 277.129C375.594 329.836 341.32 393.634 353.485 458.413C356.545 474.707 362.374 490.621 372.341 503.995C385.271 521.345 403.303 532.553 424.789 535.637C437.886 537.517 451.66 536.6 464.869 536.548L524.962 536.487L740.13 536.494L790.618 536.415C799.551 536.388 812.431 535.72 820.991 537.177C838.342 540.13 845.224 559.459 842.278 575.29C840.773 583.628 835.934 590.992 828.879 595.682C818.447 602.642 804.514 600.588 792.448 600.582L747.975 600.594L608.564 600.625L494.533 600.603C470.898 600.599 440.192 602.301 417.512 597.834C382.853 591.007 347.514 566.911 328.608 537.312C304.109 499.373 301.041 456.015 310.272 412.977C311.848 405.603 313.895 398.337 316.4 391.225C317.781 387.463 319.066 383.938 320.258 380.115C318.393 383.185 316.826 385.739 315.244 388.957L314.902 389.474C310.581 396.117 304.851 407.757 301.054 414.942C294.275 427.888 287.274 440.717 280.057 453.424C262.468 484.148 240.978 516.808 203.972 524.787C182.586 529.398 162.004 526.023 143.636 514.141C126.471 503.134 114.466 485.675 110.331 465.707C101.519 423.661 126.243 383.419 168.968 375.159C186.965 371.622 205.628 375.406 220.826 385.673C238.008 397.374 249.398 416.037 249.641 437.014ZM277.708 303.562C286.106 299.912 294.524 295.031 301.257 288.76C299.019 284.394 297.979 279.083 295.834 275.12C287.376 259.49 271.5 249.833 253.55 251.623C214.877 259.631 229.68 320.262 277.708 303.562ZM219.456 470.184C230.879 465.751 239.992 454.814 245.098 443.987C236.404 432.586 227.697 425.784 212.949 425.193C205.04 425.851 198.422 427.092 192.925 433.641C189.075 438.256 187.258 444.233 187.889 450.21C188.514 456.493 191.704 462.24 196.705 466.093C202.019 470.155 208.742 471.91 215.363 470.965C216.74 470.774 218.106 470.514 219.456 470.184Z"/><path fill="#FEFEF2" transform="scale(0.5 0.5)" d="M247.57 529.284C277.521 526.351 308.625 539.834 324.526 565.868C333.696 580.679 336.548 598.547 332.446 615.477C328.867 629.787 320.671 641.656 307.967 649.263C296.229 656.215 282.197 658.181 269 654.722C254.565 651.066 245.535 642.772 238.091 630.309C250.441 636.198 262.882 639.448 273.02 626.876C277.34 621.505 279.285 614.607 278.407 607.772C276.37 591.118 260.584 583.062 245.26 585.84C233.256 588.017 223.238 596.159 216.497 606.056C210.237 615.404 205.869 625.888 203.639 636.915C198.922 660.007 202.699 691.116 201.486 714.772C201.367 730.158 199.988 752.216 215.751 761.183C238.211 773.959 253.378 759.006 264.059 741.367C247.176 740.99 229.572 741.191 212.66 741.176C212.059 716.814 212.536 690.995 212.655 666.541L252.2 666.561L329.108 666.801C330.022 697.141 329.317 730.736 329.412 761.429L329.546 793.541C329.604 807.004 331.307 820.73 322.295 831.806C316.709 838.703 308.593 843.076 299.76 843.945C280.912 845.802 266.288 832.129 264.697 813.559C251.802 826.145 239.472 836.327 220.559 837.441C201.471 838.68 182.686 832.202 168.418 819.462C139.908 794.132 129.918 746.274 127.743 709.576C123.017 629.831 153.634 534.965 247.57 529.284Z"/><path fill="#FEFEF2" transform="scale(0.5 0.5)" d="M846.242 615.759L870.985 615.505C884.083 615.383 898.416 613.861 908.592 623.814C915.544 630.614 916.613 637.995 916.707 647.106C917.11 686.166 916.899 725.35 916.782 764.412L916.654 798.957C916.631 803.73 916.791 814.762 916.109 819.155C915.193 824.78 912.551 829.982 908.548 834.04C893.093 849.612 862.396 844.423 854.495 823.224C852.819 818.726 852.475 814.801 852.486 810.035C849.285 815.434 844.588 821.841 839.804 825.911C811.479 850.009 768.105 839.612 745.105 813.618C727.261 792.692 721.27 765.741 725.357 738.785C728.908 715.812 741.579 695.243 760.499 681.737C791.278 659.443 829.78 659.664 853.134 692.05C852.324 678.901 852.986 657.662 852.997 643.904C825.854 643.814 797.016 644.136 770.052 643.577L769.711 615.923C795.221 616.042 820.732 615.987 846.242 615.759ZM813.252 775.553C825.839 774.833 835.486 764.09 834.853 751.499C834.22 738.907 823.545 729.186 810.949 729.731C798.229 730.282 788.391 741.086 789.03 753.802C789.669 766.518 800.541 776.28 813.252 775.553Z"/><path fill="#FEFEF2" transform="scale(0.5 0.5)" d="M449.651 613.223C457.391 612.323 466.864 616.547 472.387 621.992C479.836 629.334 481.964 636.506 482.03 646.819C482.258 682.631 482.222 718.442 482.345 754.254L482.454 788.12C482.475 795.393 482.842 805.73 481.538 812.773C479.175 825.531 467.937 837.322 454.997 839.641C441.962 841.977 427.969 840.863 414.598 840.791C404.066 840.82 393.534 840.907 383.003 841.05C369.055 841.165 357.899 840.7 347.526 830.35C339.593 822.435 336.975 813.558 336.756 802.566C336.56 792.704 336.781 782.776 336.798 772.946L336.89 710.75L336.859 669.325C336.78 650.324 331.901 627.993 351.947 617.433C359.546 613.377 368.477 612.617 376.652 615.329C400.912 623.172 397.025 647.997 397.004 668.189L396.926 731.858C396.919 742.684 396.733 753.592 397.091 764.404C397.365 772.645 400.586 775.272 407.897 777.286C411.854 776.287 415.969 774.948 417.508 770.732C420.363 762.908 419.467 749.523 419.462 741.117L419.397 675.41C419.244 648.674 412.979 616.353 449.651 613.223ZM396.93 814.16L410.19 814.084L418.991 814.353C418.657 804.841 417.885 798.654 406.768 798.074C397.985 800.531 396.884 805.808 396.93 814.16Z"/><path fill="#FEFEF2" transform="scale(0.5 0.5)" d="M669.108 271.872C681.109 272.985 693.695 273.56 705.81 274.493L842.515 284.798C856.707 285.994 870.961 286.796 885.152 288.159C895.517 289.153 903.835 292.163 910.474 300.563C913.882 304.979 916.288 310.741 916.557 316.375C917.33 332.548 916.969 349.184 916.966 365.377L916.899 462.16L916.946 542.319C916.969 555.463 917.556 570.306 916.492 583.315C915.813 591.609 910.776 598.417 904.278 603.427C888.515 613.496 866.501 610.43 857.198 593.43C851.385 582.806 853.048 564.333 853.105 552.366L853.241 502.141C853.591 447.314 853.502 392.486 852.975 337.661C845.619 336.582 836.167 334.298 828.748 332.747L788.22 324.567C746.868 316.476 705.385 309.065 663.789 302.338C666.76 292.429 668.546 282.202 669.108 271.872Z"/><path fill="#FEFEF2" transform="scale(0.5 0.5)" d="M518.63 613.161C527.469 611.871 538.571 616.516 544.47 623.114C555.464 635.409 553.428 655.816 552.647 671.25C568.86 652.789 567.479 637.667 564.8 614.459L582.066 614.298C585.862 614.271 590.118 614.248 593.862 614.793C608.157 616.943 621.378 628.366 629.093 640.2C655.744 681.086 649.879 759.715 601.126 782.254C590.894 786.984 577.36 786.583 566.144 786.504C565.832 784.705 565.787 775.816 565.811 773.779C566.037 754.542 564.173 748.743 552.493 734.015C553.357 754.998 552.477 776.48 552.882 797.521C553.1 808.835 554.018 821.28 547.318 830.906C542.72 837.49 535.681 841.964 527.767 843.331C519.158 844.741 510.342 842.686 503.245 837.614C498.103 833.94 493.591 828.246 492.421 821.958C490.299 810.552 490.949 798.549 490.948 786.956L490.944 737.369L490.901 676.453C490.893 664.46 490.756 652.693 491.452 640.707C492.335 625.475 504.025 615.227 518.63 613.161ZM569.75 722.168C580.847 722.147 589.803 713.09 589.699 701.993C589.596 690.896 580.473 682.008 569.377 682.194C558.397 682.378 549.621 691.385 549.724 702.366C549.826 713.347 558.768 722.189 569.75 722.168Z"/><path fill="#FEFEF2" transform="scale(0.5 0.5)" d="M566.458 183.18C614.653 179.848 656.438 216.185 659.826 264.376C663.215 312.567 626.927 354.394 578.74 357.839C530.473 361.29 488.561 324.928 485.167 276.657C481.773 228.387 518.184 186.518 566.458 183.18Z"/><path transform="scale(0.5 0.5)" d="M567.739 297.788C581.785 296.199 594.475 306.26 596.131 320.298C597.788 334.336 587.789 347.074 573.759 348.799C559.633 350.535 546.788 340.453 545.12 326.318C543.452 312.184 553.597 299.388 567.739 297.788Z"/><path fill="#FEFEF2" transform="scale(0.5 0.5)" d="M568.627 315.497C580.73 315.141 582.052 325.028 572.441 331.441C561.697 331.396 559.285 322.123 568.627 315.497Z"/><path transform="scale(0.5 0.5)" d="M570.338 193.252C584.421 192.266 596.658 202.834 597.733 216.91C598.808 230.986 588.318 243.29 574.249 244.454C560.053 245.628 547.615 235.023 546.53 220.82C545.445 206.617 556.129 194.246 570.338 193.252Z"/><path fill="#FEFEF2" transform="scale(0.5 0.5)" d="M570.626 211.223C574.947 210.451 579.09 213.282 579.942 217.587C580.795 221.893 578.042 226.088 573.753 227.021C570.906 227.64 567.947 226.674 566.015 224.494C564.082 222.314 563.478 219.26 564.434 216.508C565.39 213.756 567.758 211.735 570.626 211.223Z"/><path transform="scale(0.5 0.5)" d="M521.542 217.787C535.589 216.903 547.692 227.572 548.579 241.619C549.466 255.665 538.8 267.771 524.754 268.662C510.703 269.553 498.591 258.882 497.704 244.831C496.817 230.779 507.491 218.67 521.542 217.787Z"/><path fill="#FEFEF2" transform="scale(0.5 0.5)" d="M522.039 235.762C526.293 235.08 530.329 237.872 531.19 242.093C532.052 246.315 529.432 250.464 525.251 251.503C522.385 252.215 519.359 251.298 517.37 249.115C515.381 246.932 514.749 243.834 515.724 241.046C516.699 238.259 519.124 236.23 522.039 235.762Z"/><path transform="scale(0.5 0.5)" d="M616.803 218.206C630.617 215.923 643.675 225.246 645.999 239.053C648.324 252.86 639.038 265.945 625.238 268.31C611.38 270.685 598.229 261.353 595.895 247.488C593.561 233.623 602.932 220.5 616.803 218.206Z"/><path fill="#FEFEF2" transform="scale(0.5 0.5)" d="M618.104 236.246C622.235 234.765 626.79 236.875 628.33 240.984C629.871 245.093 627.827 249.678 623.741 251.278C621.044 252.334 617.988 251.856 615.743 250.027C613.498 248.198 612.412 245.301 612.901 242.447C613.39 239.593 615.378 237.224 618.104 236.246Z"/><path transform="scale(0.5 0.5)" d="M619.158 270.842C633.039 270.218 644.82 280.917 645.532 294.794C646.245 308.671 635.621 320.52 621.749 321.321C607.752 322.129 595.771 311.388 595.053 297.386C594.334 283.383 605.151 271.472 619.158 270.842Z"/><path fill="#FEFEF2" transform="scale(0.5 0.5)" d="M619.187 287.808C623.466 287.268 627.405 290.212 628.098 294.468C628.792 298.725 625.99 302.767 621.761 303.612C618.887 304.186 615.93 303.145 614.049 300.898C612.168 298.651 611.664 295.557 612.735 292.829C613.805 290.101 616.28 288.176 619.187 287.808Z"/><path transform="scale(0.5 0.5)" d="M519.693 270.25C533.389 268.424 545.97 278.053 547.786 291.75C549.601 305.447 539.963 318.021 526.264 319.825C512.58 321.628 500.023 312.003 498.21 298.32C496.397 284.638 506.012 272.074 519.693 270.25Z"/><path fill="#FEFEF2" transform="scale(0.5 0.5)" d="M520.448 287.233C524.685 285.781 529.298 288.028 530.766 292.259C532.234 296.49 530.003 301.112 525.777 302.595C521.53 304.085 516.88 301.84 515.405 297.588C513.93 293.335 516.191 288.694 520.448 287.233Z"/><path fill="#FEFEF2" transform="scale(0.5 0.5)" d="M444.833 285.195C458.332 283.48 471.964 292.707 475.421 305.796C477.893 314.849 477.309 325.121 475.235 334.332C468.49 364.287 451.774 391.73 437.361 418.55C433.461 425.807 428.593 432.691 424.58 439.888C435.875 428.517 465.079 376.646 480.374 378.701C525.975 384.827 488.298 421.993 474.491 438.376C477.096 439.91 483.177 442.541 482.465 446.003C478.82 448.453 473.248 445.42 470.222 443.236C468.184 446.084 466.824 447.38 464.349 449.851C471.036 456.341 485.69 479.662 492.212 488.723C497.007 496.216 503.484 502.863 502.069 512.582C501.307 517.815 498.264 522.437 493.924 525.405C489.456 528.443 483.952 529.549 478.658 528.471C467.916 526.249 462.408 515.015 456.344 506.889C447.902 495.579 439.785 483.975 431.992 472.21C432.255 486.342 437.643 526.13 415.327 526.322C387.6 526.56 388.684 504.411 388.757 484.369L388.849 449.955L388.586 408.473C388.381 371.77 388.889 333.17 413.131 303.034C421.69 292.395 431.191 286.665 444.833 285.195ZM431.432 404.894C432.834 402.67 433.264 401.64 434.278 399.193C440.436 384.892 462.523 335.828 457.231 322.426C456.737 321.175 455.761 320.015 454.503 319.488C453.384 319.02 452.326 319.001 451.145 319.011C430.917 331.058 432.856 383.669 431.432 404.894Z"/><path fill="#FEFEF2" transform="scale(0.5 0.5)" d="M637.219 616.25C655.964 615.563 677.372 616.177 696.263 616.117C707.87 616.081 736.444 615.261 746.51 617.039C750.696 617.776 754.585 619.693 757.719 622.565C768.312 632.373 767.247 650.734 757.198 660.493C747.818 669.601 731.618 667.692 719.509 667.506L719.548 800.412C719.683 812.247 720.363 825.355 711.626 834.301C695.105 851.219 661.65 844.358 658.342 819.014C657.329 811.252 657.452 805.176 657.459 797.529L657.467 769.919L657.321 666.591C653.128 666.557 649.027 666.775 644.844 666.966C642.49 656.251 638.398 647.839 635.826 637.592C635.104 634.718 635.591 619.893 636.195 616.825L637.219 616.25Z"/><path fill="#FEFEF2" transform="scale(0.5 0.5)" d="M724.113 330.008C745.151 330.236 766.053 329.621 787.109 330.42L787.066 336.533C783.977 339.149 779.911 341.587 776.456 343.8C776.793 366.962 776.839 390.127 776.594 413.29C781.506 404.067 786.963 394.666 792.044 385.476L824.627 385.477C820.466 394.8 815.117 404.516 810.644 413.869L843.521 413.988L843.535 478.054C843.536 488.935 843.816 500.778 843.09 511.549C842.422 517.757 841.202 521.29 836.181 525.17C824.969 533.833 811.696 531.762 803.164 520.234C798.38 511.789 799.413 502.321 799.438 492.923L799.472 460.062C799.538 452.67 801.612 438.506 795.463 433.345C791.368 429.679 781.218 430.155 778.597 435.386C775.712 441.147 776.455 450.426 776.561 456.792L777.017 490.72C777.094 500.678 778.448 512.796 772.434 521.294C762.287 535.634 736.096 531.325 734.406 512.465C733.2 499.008 733.868 485.687 733.854 472.114L733.947 390.276C733.974 376.234 734.61 356.857 733.477 343.402C727.809 338.345 722.756 338.496 724.113 330.008Z"/><path fill="#FEFEF2" transform="scale(0.5 0.5)" d="M521.501 380.486L567.361 380.496C576.307 380.472 585.523 380.067 594.431 380.863C609.894 382.246 610.835 387.435 611.929 401.18C611.782 408.496 611.548 416.007 611.664 423.306L611.962 479.088C612.046 490.522 612.593 502.103 611.176 513.456C609.953 523.262 603.163 529.067 593.245 529.096C587.051 529.108 581.136 526.521 576.941 521.963C571.161 515.795 571.891 508.344 571.977 500.537C561.623 514.343 550.966 525.615 531.959 522.581C503.481 517.751 488.23 483.312 492.609 457.018C496.308 434.806 515.808 407.835 541.299 412.363C554.227 414.66 563.444 425.336 570.454 435.735C569.939 422.852 570.381 408.839 570.333 395.81C554.098 396.2 537.82 395.85 521.539 396.164L521.501 380.486ZM548.753 481.01C556.767 480.111 562.517 472.86 561.566 464.852C560.615 456.844 553.327 451.141 545.326 452.143C537.397 453.136 531.756 460.344 532.698 468.279C533.64 476.214 540.812 481.901 548.753 481.01Z"/><path fill="#FEFEF2" transform="scale(0.5 0.5)" d="M613.344 404.415C620.891 375.306 644.19 380.404 667.984 380.435L723.992 380.479C724.008 387.071 724.302 397.69 723.65 403.903C718.562 411.22 708.068 420.132 699.822 423.919C692.211 419.928 684.678 414.983 678.838 408.602C679.903 406.383 681.003 404.181 682.138 401.998C677.603 401.712 659.28 400.589 656.644 403.304C657.438 405.095 661.573 407.802 663.269 408.936C689.688 426.577 725.935 430.229 729.663 467.984C732.255 494.239 720.665 513.222 696.248 523.895C679.181 530.617 657.761 530.562 640.899 524.134C619.68 516.044 608.81 494.077 618.211 473.004C630.128 446.291 647.649 453.295 664.314 469.497C661.581 471.734 657.779 474.454 657.603 478.295C657.282 483.69 664.726 485.14 668.785 484.435C682.914 481.979 683.759 470.882 671.493 463.354C654.467 452.904 630.904 445.964 618.609 429.687C615.954 426.172 614.481 420.83 613.46 416.746C613.147 411.538 612.899 409.674 613.344 404.415Z"/><path fill="#FEFEF2" transform="scale(0.5 0.5)" d="M853.741 230.288C882.826 227.888 881.93 234.27 881.719 260.879C881.533 284.403 863.379 279.471 845.98 278.45C832.124 277.655 818.275 276.742 804.434 275.712L702.624 269.095C691.919 268.778 680.029 267.487 669.072 266.954C668.639 254.887 667.129 249.171 663.751 237.898C678.87 237.622 693.666 237.028 708.765 236.145C757 233.322 805.518 232.778 853.741 230.288Z"/><path fill="#FEFEF2" transform="scale(0.5 0.5)" d="M811.217 184.714C819.014 182.925 830.391 184.751 830.37 194.965C830.345 207.865 834.679 224.864 816.633 226.097C765.954 229.562 714.774 229.854 664.121 233.303C663.509 233.397 662.92 233.347 662.287 233.339C659.744 229.723 656.883 222.338 654.401 218.322C651.38 213.433 647.667 208.493 644.322 203.806C663.069 200.882 684.213 198.794 703.232 196.513C739.184 192.201 775.181 188.267 811.217 184.714Z"/><path transform="scale(0.5 0.5)" d="M611.929 401.18C612.352 402.224 612.788 403.463 613.344 404.415C612.899 409.674 613.147 411.538 613.46 416.746C611.391 418.86 612.678 419.703 611.664 423.306C611.548 416.007 611.782 408.496 611.929 401.18Z"/><path transform="scale(0.5 0.5)" d="M320.258 380.115C319.066 383.938 317.781 387.463 316.4 391.225L315.244 388.957C316.826 385.739 318.393 383.185 320.258 380.115Z"/></svg>